<svg class="svg-icon" style="width: 1em;height: 1em;vertical-align: middle;fill: currentColor;overflow: hidden;" viewBox="0 0 1024 1024" version="1.1" xmlns="http://www.w3.org/2000/svg"><path d="M256 810.666667a42.666667 42.666667 0 0 1-30.293333-12.373334 42.666667 42.666667 0 0 1 0-60.586666l512-512a42.666667 42.666667 0 1 1 60.586666 60.586666l-512 512A42.666667 42.666667 0 0 1 256 810.666667z"  /><path d="M768 810.666667a42.666667 42.666667 0 0 1-30.293333-12.373334l-512-512a42.666667 42.666667 0 0 1 60.586666-60.586666l512 512a42.666667 42.666667 0 0 1 0 60.586666A42.666667 42.666667 0 0 1 768 810.666667z"  /></svg>